<svg width="1920" height="570" viewBox="0 0 1920 570" fill="none" xmlns="http://www.w3.org/2000/svg">
<path d="M1654.44 42.196C1602.96 42.196 1555.01 57.8586 1515.2 84.6821C1468.62 44.0637 1407.74 19.4615 1341.21 19.4615C1285.99 19.4615 1234.66 36.4342 1192.17 65.3839C1149.68 36.4342 1098.35 19.4615 1043.13 19.4615C975.586 19.4615 913.951 44.8208 867.068 86.5045C823.013 53.9191 768.605 34.6209 709.694 34.6209C679.788 34.6209 650.988 39.6211 624.164 48.7648C582.077 20.6764 531.558 4.30664 477.299 4.30664C435.216 4.30664 395.405 14.1575 360.04 31.6878C334.831 23.7545 308.052 19.4615 280.268 19.4615C134.01 19.4615 15.0332 138.438 15.0332 284.696C15.0332 430.954 134.01 549.931 280.268 549.931C322.351 549.931 362.162 540.08 397.526 522.55C422.736 530.483 449.514 534.776 477.299 534.776C507.205 534.776 536.005 529.776 562.829 520.632C604.911 548.72 655.435 565.09 709.694 565.09C777.241 565.09 838.875 539.731 885.759 498.047C929.813 530.632 984.222 549.931 1043.13 549.931C1098.35 549.931 1149.68 532.958 1192.17 504.008C1195.91 501.433 1199.65 498.754 1203.29 496.025C1243.5 520.578 1290.74 534.776 1341.21 534.776C1398.7 534.776 1452 516.384 1495.5 485.163C1498.73 487.793 1502.02 490.418 1505.4 492.893C1547.03 523.964 1598.66 542.351 1654.44 542.351C1792.31 542.351 1904.52 430.143 1904.52 292.271C1904.52 154.404 1792.31 42.196 1654.44 42.196ZM1654.44 517.091C1606.24 517.091 1561.48 501.832 1524.85 475.915C1517.93 470.965 1511.26 465.661 1504.9 459.949C1497.57 453.43 1490.7 446.458 1484.28 439.033L1463.01 452.977C1467.3 458.081 1471.75 462.982 1476.45 467.678C1437.95 494.049 1391.32 509.512 1341.2 509.512C1298.56 509.512 1258.5 498.346 1223.79 478.694C1227.93 474.855 1231.92 470.915 1235.81 466.822L1235.1 466.568L1218.78 447.927C1210.6 456.817 1201.66 465.104 1192.16 472.633C1185.34 478.091 1178.22 483.142 1170.79 487.788C1133.81 511.13 1090.01 524.667 1043.12 524.667C991.34 524.667 943.345 508.197 904.091 480.159C911.921 471.672 919.246 462.678 925.969 453.231L905.76 438.026C899.191 447.324 892.019 456.114 884.236 464.347C878.424 470.512 872.313 476.369 865.898 481.877C823.866 517.948 769.303 539.826 709.69 539.826C666.85 539.826 626.581 528.511 591.724 508.755C582.984 503.804 574.547 498.296 566.514 492.285C555.857 484.402 545.901 475.612 536.758 466.015L506.648 470.308C516.145 481.623 526.603 492.131 537.868 501.733C518.52 506.837 498.211 509.512 477.294 509.512C460.571 509.512 444.256 507.794 428.543 504.512C417.228 502.186 406.212 499.053 395.505 495.164C381.66 490.114 368.373 483.799 355.797 476.369L326.544 487.634C338.466 495.921 351.096 503.247 364.333 509.457C338.163 519.308 309.82 524.662 280.268 524.662C147.954 524.662 40.2928 417.001 40.2928 284.687C40.2928 152.373 147.954 44.7211 280.268 44.7211C296.991 44.7211 313.307 46.4392 329.019 49.7213C317.754 57.301 307.091 65.7873 297.141 75.0307L334.527 76.7987C343.267 70.2798 352.461 64.3729 362.062 59.0644C372.013 53.6063 382.471 48.8101 393.233 44.7664C419.404 34.9155 447.746 29.5617 477.299 29.5617C520.139 29.5617 560.408 40.8768 595.265 60.633C586.878 64.6223 578.795 69.0196 570.912 73.8702L591.525 91.0469C600.822 85.7928 610.469 81.0963 620.474 77.1025C629.718 73.3625 639.319 70.1801 649.12 67.6551C668.468 62.5506 688.778 59.8759 709.694 59.8759C761.478 59.8759 809.472 76.3454 848.726 104.384C855.599 109.284 862.267 114.588 868.582 120.196C874.947 125.804 881.062 131.765 886.72 138.08L909.201 125.246C902.228 117.263 894.753 109.738 886.919 102.661C928.952 66.5897 983.515 44.712 1043.13 44.712C1090.01 44.712 1133.81 58.253 1170.79 81.5904C1178.22 86.2371 1185.35 91.2917 1192.17 96.7453C1198.58 101.85 1204.7 107.253 1210.56 112.961L1214.9 112.911L1238.24 105.132C1230.51 96.7951 1222.28 88.9163 1213.53 81.5904C1250.52 58.2484 1294.32 44.712 1341.2 44.712C1399.45 44.712 1452.9 65.5788 1494.53 100.186C1486.05 107.208 1478.06 114.788 1470.64 122.921L1493.73 135.197C1499.84 128.932 1506.35 123.02 1513.18 117.512C1519.8 112.159 1526.72 107.154 1533.89 102.557C1568.75 80.3256 1610.13 67.4465 1654.43 67.4465C1778.41 67.4465 1879.25 168.285 1879.25 292.267C1879.26 416.253 1778.42 517.091 1654.44 517.091Z" fill="url(#paint0_linear_2004_1075)"/>
<path d="M277.743 254.387H247.782V320.518H282.643V253.729C280.975 254.183 279.356 254.387 277.743 254.387ZM277.743 254.387H247.782V320.518H282.643V253.729C280.975 254.183 279.356 254.387 277.743 254.387ZM277.743 254.387H247.782V320.518H282.643V253.729C280.975 254.183 279.356 254.387 277.743 254.387ZM277.743 254.387H247.782V320.518H282.643V253.729C280.975 254.183 279.356 254.387 277.743 254.387ZM277.743 254.387H256.522V320.518H282.643V253.729C280.975 254.183 279.356 254.387 277.743 254.387ZM396.012 316.629C393.587 312.286 390.708 308.342 387.272 304.806C384.647 301.977 381.714 299.402 378.532 297.027C375.803 295.005 372.924 293.137 369.841 291.419C367.062 289.855 364.184 288.386 361.101 287.076C358.422 285.866 355.643 284.751 352.764 283.744C355.743 281.722 358.522 279.551 361.101 277.225C364.383 274.347 367.316 271.214 369.841 267.878C373.477 263.231 376.36 258.226 378.532 252.823C382.117 244.132 383.836 234.535 383.836 224.077C383.836 209.579 382.117 197.149 378.532 186.591C376.36 180.072 373.482 174.315 369.841 169.21C367.316 165.624 364.383 162.338 361.101 159.409C358.476 157.034 355.543 154.862 352.411 152.84C349.682 151.172 346.803 149.608 343.67 148.244C340.941 146.979 338.063 145.818 334.98 144.807C332.201 143.846 329.273 142.99 326.24 142.282C323.461 141.575 320.582 140.918 317.55 140.415C314.721 139.857 311.842 139.454 308.809 139.05C306.234 138.697 303.555 138.443 300.826 138.193H161.545V436.267H305.527C306.638 436.267 307.749 436.267 308.809 436.217C311.788 436.217 314.721 436.068 317.55 435.864C320.532 435.714 323.411 435.46 326.24 435.107C329.218 434.803 332.151 434.35 334.98 433.842C337.963 433.339 340.892 432.681 343.67 431.974C346.703 431.217 349.582 430.356 352.411 429.349C355.443 428.339 358.322 427.178 361.101 425.863C364.184 424.449 367.062 422.88 369.841 421.112C372.924 419.245 375.852 417.123 378.532 414.798C381.714 412.068 384.643 409.09 387.272 405.803C390.708 401.51 393.637 396.76 396.012 391.505C401.316 380.036 404.045 366.296 404.045 350.379C404.045 337.038 401.216 325.922 396.012 316.629ZM247.428 208.917H277.743C279.257 208.917 280.925 209.171 282.643 209.724C285.676 210.735 288.754 212.603 291.383 215.282C295.173 219.172 297.952 224.779 297.952 232.155C297.952 239.531 295.223 245.039 291.383 248.724C288.808 251.2 285.726 252.868 282.643 253.725C280.975 254.178 279.361 254.382 277.743 254.382H247.428V208.917ZM308.814 361.441C306.538 365.076 303.46 367.656 300.124 369.12C297.902 370.081 295.527 370.584 293.151 370.584H247.428V320.518H291.787C294.665 320.518 297.494 321.076 300.124 322.236C303.51 323.651 306.538 326.076 308.814 329.408C311.493 333.298 313.107 338.502 313.107 344.966C313.107 351.789 311.439 357.297 308.814 361.441ZM277.743 254.387H247.782V320.518H282.643V253.729C280.975 254.183 279.356 254.387 277.743 254.387ZM277.743 254.387H247.782V320.518H282.643V253.729C280.975 254.183 279.356 254.387 277.743 254.387ZM277.743 254.387H247.782V320.518H282.643V253.729C280.975 254.183 279.356 254.387 277.743 254.387ZM282.643 253.729C280.975 254.183 279.361 254.387 277.743 254.387H256.522V320.518H291.383V248.724C288.804 251.204 285.726 252.868 282.643 253.729Z" fill="#1D1D1B"/>
<path d="M528.426 128.791H526.758L518.018 128.687L509.332 128.637L500.592 128.587L491.901 128.487L483.161 128.438L474.421 128.388L465.731 128.283L456.99 128.234L448.3 128.134L439.56 128.084H439.41L439.56 137.024L444.46 426.158H530.348L528.426 128.791Z" fill="#1D1D1B"/>
<path d="M852.062 158.294L844.686 157.891L837.36 157.437L830.035 156.979L822.659 156.576L815.333 156.123L808.007 155.719L800.681 155.261L793.306 154.858L785.98 154.405L778.654 154.001L771.278 153.543L767.792 153.344L763.953 264.691L762.742 299.856L756.627 289.647L749.251 277.37L741.925 265.144L734.599 252.972L727.224 240.642L719.898 228.47L712.572 216.243L705.246 204.017L697.871 191.741L690.549 179.514L683.223 167.338L675.843 155.012L671.804 148.289H596.021L595.114 201.945L590.971 446.363H680.798L681.909 299.856L683.223 301.977L690.549 313.9L697.871 325.822L705.246 337.795L712.572 349.668L727.224 373.513L734.599 385.485L741.925 397.408L749.251 409.281L756.627 421.258L762.742 431.208H848.626L852.062 245.696L853.68 158.394L852.062 158.294Z" fill="#1D1D1B"/>
<path d="M1160.09 374.12L1152.51 259.436H1010.29V318.192H1078.55V351.032C1077.23 351.789 1075.51 352.446 1073.55 352.949C1070.67 353.706 1067.28 354.264 1063.89 354.617C1060.61 354.971 1057.28 355.175 1054.3 355.275C1050.61 355.424 1047.43 355.424 1045.66 355.424H1044.7C1041.31 355.375 1038.13 355.22 1035.04 354.921C1031.66 354.617 1028.48 354.114 1025.45 353.457C1022.06 352.8 1018.83 351.893 1015.85 350.778C1012.36 349.567 1009.18 348.153 1006.2 346.485C1003.57 345.02 1001.15 343.352 998.873 341.584C996.144 339.463 993.719 337.087 991.547 334.562C988.619 331.226 986.194 327.59 984.172 323.7C980.482 316.778 978.111 309.049 976.846 300.966C975.835 294.905 975.432 288.69 975.531 282.375C975.631 277.574 976.035 272.927 976.846 268.43C978.211 260.701 980.686 253.525 984.172 247.06C986.244 243.171 988.719 239.53 991.547 236.248C993.769 233.673 996.194 231.248 998.873 229.077C1001.15 227.159 1003.57 225.441 1006.2 223.872C1009.18 222.104 1012.41 220.486 1015.85 219.176C1018.88 218.015 1022.07 217.004 1025.45 216.197C1028.53 215.49 1031.71 214.933 1035.04 214.579C1038.13 214.225 1041.36 214.021 1044.7 213.972H1045.66C1048.23 213.972 1051.16 214.121 1054.3 214.425C1057.28 214.729 1060.51 215.132 1063.89 215.69C1067.03 216.247 1070.26 216.85 1073.55 217.662C1076.73 218.369 1079.96 219.226 1083.14 220.187C1086.38 221.148 1089.61 222.209 1092.79 223.369C1096.08 224.53 1099.26 225.844 1102.39 227.309C1103.71 227.866 1105.02 228.469 1106.28 229.126L1111.99 218.519L1121.64 200.585L1131.24 182.801L1140.89 164.867L1141.65 163.452L1140.89 162.999C1137.81 160.927 1134.57 158.955 1131.24 157.038C1128.1 155.32 1124.92 153.602 1121.64 152.038C1118.51 150.474 1115.27 149.055 1111.99 147.695C1108.86 146.33 1105.67 145.12 1102.39 144.005C1099.26 142.794 1096.03 141.783 1092.79 140.822C1089.61 139.861 1086.43 138.954 1083.14 138.197C1079.96 137.39 1076.78 136.683 1073.55 136.076C1070.36 135.468 1067.13 134.965 1063.89 134.512C1060.71 134.059 1057.53 133.705 1054.3 133.451C1051.12 133.197 1047.88 132.998 1044.7 132.948C1041.47 132.848 1038.24 132.848 1035.05 132.948C1033.53 132.998 1032.02 133.048 1030.5 133.152C1028.78 133.252 1027.12 133.356 1025.45 133.555C1022.22 133.809 1018.99 134.163 1015.86 134.566C1012.57 135.02 1009.39 135.577 1006.2 136.234C1003.73 136.688 1001.3 137.196 998.878 137.853C996.403 138.41 993.927 139.063 991.552 139.77C989.027 140.478 986.602 141.285 984.176 142.146C981.701 143.007 979.226 143.914 976.851 144.925C974.375 145.886 971.9 146.947 969.525 148.107C967 149.268 964.524 150.483 962.149 151.847C959.624 153.162 957.199 154.576 954.823 156.09C952.298 157.605 949.873 159.273 947.497 160.941C944.972 162.759 942.497 164.681 940.122 166.648C937.597 168.72 935.121 170.892 932.796 173.167C930.271 175.593 927.796 178.118 925.47 180.747C922.841 183.626 920.366 186.658 918.094 189.791C915.47 193.277 913.044 196.863 910.769 200.603C908.089 205.05 905.614 209.697 903.443 214.497C900.564 220.663 898.089 227.127 896.117 233.846C891.47 249.105 889.045 265.674 889.045 283.254C889.045 302.602 891.42 320.486 896.117 336.602C898.089 343.574 900.514 350.243 903.443 356.558C905.564 361.408 908.039 366.055 910.769 370.502C912.99 374.242 915.415 377.828 918.094 381.264C920.37 384.347 922.845 387.325 925.47 390.154C927.796 392.729 930.221 395.154 932.796 397.43C935.121 399.651 937.597 401.723 940.122 403.695C942.497 405.613 944.972 407.385 947.497 409.099C949.873 410.717 952.298 412.231 954.823 413.695C957.199 415.11 959.624 416.425 962.149 417.685C964.524 418.895 967 420.06 969.525 421.121C971.9 422.232 974.375 423.243 976.851 424.099C979.226 425.06 981.701 425.917 984.176 426.674C986.602 427.481 989.027 428.238 991.552 428.896C993.977 429.603 996.403 430.21 998.878 430.713C1001.3 431.321 1003.73 431.824 1006.2 432.277C1009.34 432.935 1012.57 433.438 1015.86 433.896C1018.99 434.349 1022.22 434.757 1025.45 435.056C1028.58 435.36 1031.82 435.614 1035.05 435.813C1038.23 436.017 1041.41 436.117 1044.7 436.167C1046.67 436.267 1048.69 436.267 1050.71 436.267C1051.92 436.267 1053.14 436.267 1054.3 436.217C1057.58 436.167 1060.76 436.067 1063.89 435.863C1067.18 435.659 1070.41 435.41 1073.55 435.007C1076.83 434.703 1080.01 434.249 1083.14 433.692C1086.43 433.189 1089.66 432.581 1092.79 431.874C1096.08 431.167 1099.26 430.36 1102.39 429.449C1105.62 428.538 1108.86 427.531 1111.99 426.47C1115.27 425.36 1118.46 424.095 1121.64 422.78C1124.87 421.466 1128.05 420.051 1131.24 418.537C1134.47 416.973 1137.71 415.355 1140.89 413.587C1144.12 411.869 1147.3 410.051 1150.49 408.079C1153.72 406.211 1156.9 404.189 1160.08 402.068C1160.69 401.664 1161.24 401.31 1161.85 400.907L1160.09 374.12Z" fill="#1D1D1B"/>
<path d="M1488.02 235.691C1485.19 226.194 1481.45 217.25 1476.91 208.967C1473.67 202.906 1469.93 197.194 1465.79 191.84C1462.4 187.393 1458.72 183.15 1454.68 179.211C1451.19 175.725 1447.5 172.388 1443.56 169.36C1440.02 166.531 1436.28 163.956 1432.44 161.531C1428.86 159.255 1425.12 157.188 1421.28 155.266C1417.69 153.448 1414 151.73 1410.16 150.266C1407.03 148.951 1403.85 147.79 1400.57 146.779C1397.43 145.719 1394.2 144.807 1390.91 143.951C1387.78 143.144 1384.6 142.382 1381.32 141.779C1378.18 141.172 1375 140.619 1371.72 140.215C1368.59 139.712 1365.36 139.304 1362.07 139.055C1358.94 138.751 1355.7 138.551 1352.47 138.397C1349.39 138.248 1346.26 138.193 1343.12 138.193H1342.87C1339.64 138.193 1336.4 138.293 1333.22 138.447C1329.99 138.547 1326.75 138.801 1323.62 139.105C1320.34 139.408 1317.1 139.762 1313.97 140.265C1310.69 140.718 1307.51 141.226 1304.37 141.933C1301.09 142.541 1297.9 143.248 1294.78 144.105C1291.49 144.962 1288.26 145.873 1285.12 146.983C1281.84 147.994 1278.66 149.205 1275.53 150.47C1272.25 151.784 1269.06 153.199 1265.93 154.763C1262.59 156.381 1259.36 158.149 1256.28 160.067C1252.95 161.984 1249.76 164.11 1246.68 166.381C1243.35 168.757 1240.11 171.332 1237.03 174.111C1233.64 177.039 1230.41 180.172 1227.43 183.508C1224 187.248 1220.82 191.188 1217.84 195.331C1214.25 200.282 1211.07 205.536 1208.19 211.093C1204.35 218.419 1201.11 226.248 1198.59 234.535C1193.59 250.501 1190.96 268.131 1190.96 287.23C1190.96 306.329 1193.59 323.959 1198.59 339.925C1201.11 348.212 1204.35 356.041 1208.19 363.367C1211.06 368.925 1214.25 374.179 1217.84 379.129C1220.82 383.273 1224 387.212 1227.43 390.952C1230.41 394.289 1233.65 397.421 1237.03 400.35C1240.11 403.129 1243.35 405.704 1246.68 408.079C1249.77 410.355 1252.95 412.476 1256.28 414.394C1259.36 416.312 1262.59 418.084 1265.93 419.698C1269.06 421.262 1272.25 422.681 1275.53 423.991C1278.66 425.256 1281.84 426.466 1285.12 427.477C1288.26 428.588 1291.49 429.499 1294.78 430.356C1297.91 431.217 1301.09 431.924 1304.37 432.527C1307.51 433.234 1310.69 433.738 1313.97 434.196C1317.1 434.699 1320.34 435.057 1323.62 435.356C1326.75 435.66 1329.99 435.914 1333.22 436.013C1336.4 436.163 1339.63 436.267 1342.87 436.267H1343.12C1346.26 436.267 1349.39 436.217 1352.47 436.063C1355.7 435.914 1358.94 435.71 1362.07 435.406C1365.35 435.152 1368.59 434.749 1371.72 434.245C1375 433.842 1378.18 433.284 1381.32 432.681C1384.6 432.074 1387.79 431.317 1390.91 430.51C1394.2 429.653 1397.43 428.742 1400.57 427.681C1403.85 426.67 1407.03 425.51 1410.16 424.195C1414 422.731 1417.69 421.013 1421.28 419.195C1425.12 417.277 1428.86 415.206 1432.44 412.93C1436.28 410.505 1440.02 407.93 1443.56 405.101C1447.5 402.068 1451.19 398.736 1454.68 395.25C1458.72 391.31 1462.4 387.067 1465.79 382.62C1469.93 377.266 1473.67 371.554 1476.91 365.493C1481.45 357.206 1485.19 348.267 1488.02 338.769C1492.82 323.107 1495.3 305.88 1495.3 287.239C1495.3 268.598 1492.82 251.354 1488.02 235.691ZM1400.57 321.729C1398 326.883 1394.76 331.48 1390.92 335.469C1388.04 338.502 1384.81 341.177 1381.32 343.502C1378.34 345.524 1375.16 347.242 1371.72 348.657C1368.69 349.971 1365.46 351.032 1362.07 351.889C1358.99 352.646 1355.81 353.203 1352.48 353.557C1349.44 353.961 1346.37 354.115 1343.13 354.115H1342.87C1339.54 354.115 1336.36 353.911 1333.22 353.507C1329.89 353.154 1326.7 352.546 1323.63 351.739C1320.24 350.882 1317.01 349.767 1313.97 348.407C1310.54 346.943 1307.36 345.175 1304.38 343.153C1300.89 340.778 1297.66 337.999 1294.78 334.916C1290.94 330.773 1287.71 325.972 1285.13 320.668C1280.53 311.171 1278.06 299.856 1278.06 287.221C1278.06 274.587 1280.53 263.276 1285.13 253.775C1287.7 248.471 1290.94 243.67 1294.78 239.526C1297.66 236.444 1300.89 233.665 1304.38 231.289C1307.36 229.267 1310.54 227.499 1313.97 226.035C1317.01 224.671 1320.24 223.56 1323.63 222.699C1326.71 221.892 1329.89 221.284 1333.22 220.931C1336.36 220.527 1339.54 220.323 1342.87 220.323H1343.13C1346.36 220.323 1349.44 220.473 1352.48 220.881C1355.81 221.234 1359 221.792 1362.07 222.549C1365.46 223.406 1368.69 224.467 1371.72 225.781C1375.16 227.196 1378.34 228.914 1381.32 230.936C1384.81 233.261 1388.04 235.936 1390.92 238.969C1394.76 242.958 1397.99 247.555 1400.57 252.709C1405.52 262.41 1408.2 274.079 1408.2 287.217C1408.2 300.359 1405.52 312.027 1400.57 321.729Z" fill="#1D1D1B"/>
<path d="M1532.53 380.739C1529.6 378.06 1525.81 376.192 1521.42 375.385C1519.9 375.131 1518.33 374.981 1516.66 374.981C1514.44 374.981 1512.27 375.235 1510.3 375.739C1505.75 376.849 1501.96 379.175 1499.18 382.407C1495.9 386.097 1494.03 390.998 1494.03 396.605C1494.03 402.213 1495.9 407.114 1499.18 410.804C1501.96 413.986 1505.75 416.312 1510.3 417.422C1512.27 417.925 1514.44 418.179 1516.66 418.179C1518.33 418.179 1519.9 418.03 1521.42 417.776C1525.81 416.969 1529.6 415.151 1532.53 412.472C1536.77 408.632 1539.3 403.074 1539.3 396.61C1539.3 390.082 1536.77 384.578 1532.53 380.739Z" fill="#1D1D1B"/>
<path d="M1662.01 244.281L1654.89 244.585L1643.78 245.038L1632.66 245.442L1621.8 245.895V300.558L1621.55 300.154C1618.67 295.254 1614.88 291.364 1610.38 288.431C1607.04 286.21 1603.31 284.641 1599.26 283.68C1596.13 282.873 1592.8 282.47 1589.31 282.47H1588.15C1584.26 282.57 1580.52 283.177 1577.04 284.288C1572.99 285.448 1569.26 287.271 1565.92 289.691C1561.52 292.774 1557.79 296.813 1554.76 301.664C1549.25 310.454 1546.17 321.873 1546.17 335.16C1546.17 348.448 1549.25 359.867 1554.76 368.607C1557.79 373.458 1561.52 377.497 1565.92 380.629C1569.25 383.055 1572.99 384.873 1577.04 386.033C1580.52 387.144 1584.26 387.751 1588.15 387.851H1589.31C1592.8 387.851 1596.14 387.448 1599.26 386.641C1603.31 385.68 1607.04 384.066 1610.38 381.89C1614.88 378.961 1618.67 375.017 1621.55 370.167L1621.8 369.763V385.476H1666L1662.01 244.281ZM1621.8 347.545L1621.55 347.799C1618.82 350.982 1614.78 353.103 1610.38 353.761C1609.32 353.965 1608.21 354.064 1607.1 354.064C1604.47 354.064 1601.79 353.81 1599.27 353.153C1594.57 351.943 1590.43 349.413 1588.15 344.667C1586.94 342.142 1586.23 339.059 1586.23 335.169C1586.23 331.23 1586.89 327.998 1588.15 325.368C1590.37 320.418 1594.47 317.589 1599.27 316.578C1601.74 316.021 1604.42 315.971 1607.1 316.275C1608.21 316.424 1609.32 316.578 1610.38 316.832C1614.72 317.689 1618.82 319.357 1621.55 322.54L1621.8 322.794V347.545Z" fill="#1D1D1B"/>
<path d="M1806.6 382.456L1795.44 363.407L1788.37 351.385L1784.32 344.463L1777.25 332.44L1769.12 318.546L1777.25 309.756L1784.32 302.076L1788.37 297.729L1795.44 290.054L1806.6 277.977L1806.65 277.927H1759.92L1755.02 283.988L1743.86 297.729L1732.74 311.424L1730.52 314.149L1730.47 230.133L1721.63 231.447L1710.52 233.116L1699.4 234.784L1689.8 236.198V385.739H1730.52V360.479L1732.74 358.103L1740.32 349.921L1743.86 356.082L1755.02 375.584L1760.83 385.739H1808.53L1806.6 382.456Z" fill="#1D1D1B"/>
<path d="M169.324 138.188H161.545V436.262H169.324V138.188Z" fill="#D82E8A"/>
<path d="M178.064 138.188H169.324V436.262H178.064V138.188Z" fill="#D82E89"/>
<path d="M186.755 138.188H178.064V436.262H186.755V138.188Z" fill="#D92E88"/>
<path d="M195.494 138.188H186.754V436.262H195.494V138.188Z" fill="#D92E87"/>
<path d="M204.234 138.188H195.494V436.262H204.234V138.188Z" fill="#D92E86"/>
<path d="M212.925 138.188H204.234V436.262H212.925V138.188Z" fill="#DA2E85"/>
<path d="M221.666 138.188H212.926V436.262H221.666V138.188Z" fill="#DA2E84"/>
<path d="M230.351 138.188H221.66V436.262H230.351V138.188Z" fill="#DA2E83"/>
<path d="M239.092 138.188H230.352V436.262H239.092V138.188Z" fill="#DB2E82"/>
<path d="M247.782 138.188H239.092V436.262H247.782V138.188Z" fill="#DB2E81"/>
<path d="M256.521 138.188H247.781V208.917H256.521V138.188Z" fill="#DB2E80"/>
<path d="M256.521 254.387H247.781V320.519H256.521V254.387Z" fill="#DB2E80"/>
<path d="M256.521 370.584H247.781V436.263H256.521V370.584Z" fill="#DB2E80"/>
<path d="M265.212 138.188H256.521V208.917H265.212V138.188Z" fill="#DB2E7F"/>
<path d="M265.212 254.387H256.521V320.519H265.212V254.387Z" fill="#DB2E7F"/>
<path d="M265.212 370.584H256.521V436.263H265.212V370.584Z" fill="#DB2E7F"/>
<path d="M273.953 138.188H265.213V208.917H273.953V138.188Z" fill="#DC2F7E"/>
<path d="M273.953 254.387H265.213V320.519H273.953V254.387Z" fill="#DC2F7E"/>
<path d="M273.953 370.584H265.213V436.263H273.953V370.584Z" fill="#DC2F7E"/>
<path d="M282.643 138.188V209.724C280.925 209.166 279.257 208.917 277.743 208.917H273.953V138.188H282.643Z" fill="#DC2F7D"/>
<path d="M282.643 253.729V320.519H273.953V254.387H277.743C279.357 254.387 280.975 254.183 282.643 253.729Z" fill="#DC2F7D"/>
<path d="M282.643 370.584H273.953V436.263H282.643V370.584Z" fill="#DC2F7D"/>
<path d="M291.383 138.188V215.282C288.753 212.603 285.675 210.735 282.643 209.724V138.188H291.383Z" fill="#DC2F7C"/>
<path d="M291.383 248.725V320.514H282.643V253.729C285.725 252.868 288.803 251.204 291.383 248.725Z" fill="#DC2F7C"/>
<path d="M291.383 370.584H282.643V436.263H291.383V370.584Z" fill="#DC2F7C"/>
<path d="M300.123 138.188V322.236C297.498 321.076 294.665 320.518 291.786 320.518H291.383V248.724C295.223 245.034 297.952 239.531 297.952 232.155C297.952 224.779 295.173 219.171 291.383 215.282V138.188H300.123Z" fill="#DD2F7B"/>
<path d="M293.151 370.584C295.526 370.584 297.902 370.081 300.123 369.12V436.263H291.383V370.584H293.151Z" fill="#DD2F7B"/>
<path d="M308.813 139.045V329.408C306.538 326.076 303.509 323.651 300.123 322.236V138.188H300.83C303.555 138.438 306.234 138.692 308.813 139.045Z" fill="#DD2F7A"/>
<path d="M308.815 361.44V436.213C307.754 436.263 306.643 436.263 305.533 436.263H300.129V369.12C303.456 367.651 306.539 365.076 308.815 361.44Z" fill="#DD2F7A"/>
<path d="M317.549 140.41V435.855C314.72 436.059 311.792 436.209 308.809 436.209V361.441C311.438 357.297 313.102 351.789 313.102 344.971C313.102 338.502 311.483 333.303 308.809 329.413V139.046C311.841 139.449 314.72 139.853 317.549 140.41Z" fill="#DD2F79"/>
<path d="M326.239 142.278V435.098C323.41 435.451 320.532 435.705 317.549 435.855V140.41C320.582 140.913 323.46 141.571 326.239 142.278Z" fill="#DE2F78"/>
<path d="M334.98 144.802V433.832C332.152 434.336 329.223 434.793 326.24 435.097V142.277C329.273 142.985 332.202 143.846 334.98 144.802Z" fill="#DE2F77"/>
<path d="M343.671 148.239V431.965C340.892 432.672 337.963 433.329 334.98 433.833V144.803C338.063 145.814 340.942 146.979 343.671 148.239Z" fill="#DE2F76"/>
<path d="M352.41 152.836V429.336C349.581 430.347 346.703 431.204 343.67 431.961V148.239C346.802 149.604 349.681 151.172 352.41 152.836Z" fill="#DF2F75"/>
<path d="M361.1 277.221C358.526 279.546 355.747 281.718 352.764 283.74C355.642 284.751 358.421 285.861 361.1 287.072V425.854C358.322 427.169 355.443 428.329 352.41 429.34V152.836C355.543 154.858 358.471 157.029 361.1 159.405V277.221Z" fill="#DF2F74"/>
<path d="M369.842 169.205V267.873C367.317 271.205 364.384 274.342 361.102 277.22V159.404C364.384 162.337 367.317 165.619 369.842 169.205Z" fill="#DF2F73"/>
<path d="M369.842 291.414V421.103C367.063 422.871 364.184 424.435 361.102 425.854V287.071C364.184 288.386 367.063 289.85 369.842 291.414Z" fill="#DF2F73"/>
<path d="M378.532 186.587V252.818C376.361 258.222 373.482 263.227 369.842 267.873V169.206C373.478 174.311 376.361 180.068 378.532 186.587Z" fill="#E02F71"/>
<path d="M378.532 297.026V414.793C375.853 417.118 372.924 419.24 369.842 421.107V291.414C372.924 293.132 375.803 295.004 378.532 297.026Z" fill="#E02F71"/>
<path d="M383.835 224.072C383.835 234.53 382.117 244.127 378.531 252.818V186.586C382.117 197.144 383.835 209.574 383.835 224.072Z" fill="#E02F70"/>
<path d="M387.271 304.806V405.798C384.647 409.081 381.714 412.064 378.531 414.793V297.026C381.714 299.397 384.642 301.977 387.271 304.806Z" fill="#E02F70"/>
<path d="M396.012 316.629V391.501C393.636 396.755 390.708 401.506 387.271 405.799V304.806C390.708 308.342 393.586 312.281 396.012 316.629Z" fill="#E02F6F"/>
<path d="M404.045 350.375C404.045 366.287 401.316 380.032 396.012 391.501V316.629C401.216 325.922 404.045 337.038 404.045 350.375Z" fill="#E02F6E"/>
<path d="M439.56 128.084V137.024L439.41 128.084H439.56Z" fill="#E22F6A"/>
<path d="M448.299 128.134V426.158H444.459L439.559 137.024V128.084L448.299 128.134Z" fill="#E22F69"/>
<path d="M456.989 128.234V426.158H448.299V128.134L456.989 128.234Z" fill="#E22F68"/>
<path d="M465.73 128.283V426.158H456.99V128.233L465.73 128.283Z" fill="#E32F67"/>
<path d="M474.421 128.387V426.158H465.73V128.283L474.421 128.387Z" fill="#E32F66"/>
<path d="M483.16 128.438V426.158H474.42V128.388L483.16 128.438Z" fill="#E33065"/>
<path d="M491.9 128.487V426.158H483.16V128.438L491.9 128.487Z" fill="#E43064"/>
<path d="M500.591 128.587V426.158H491.9V128.487L500.591 128.587Z" fill="#E43063"/>
<path d="M509.332 128.637V426.158H500.592V128.587L509.332 128.637Z" fill="#E43062"/>
<path d="M518.018 128.687V426.158H509.332V128.637L518.018 128.687Z" fill="#E53061"/>
<path d="M526.758 128.791V426.157H518.018V128.687L526.758 128.791Z" fill="#E53060"/>
<path d="M530.348 426.158H526.758V128.791H528.426L530.348 426.158Z" fill="#E5305F"/>
<path d="M595.114 201.945V446.363H590.971L595.114 201.945Z" fill="#E73059"/>
<path d="M602.441 148.289V446.363H595.115V201.945L596.022 148.289H602.441Z" fill="#E73159"/>
<path d="M609.817 148.289H602.441V446.363H609.817V148.289Z" fill="#E73258"/>
<path d="M617.142 148.289H609.816V446.363H617.142V148.289Z" fill="#E73358"/>
<path d="M624.468 148.289H617.143V446.363H624.468V148.289Z" fill="#E73457"/>
<path d="M631.795 148.289H624.469V446.363H631.795V148.289Z" fill="#E83557"/>
<path d="M639.169 148.289H631.793V446.363H639.169V148.289Z" fill="#E83657"/>
<path d="M646.496 148.289H639.17V446.363H646.496V148.289Z" fill="#E83756"/>
<path d="M653.822 148.289H646.496V446.363H653.822V148.289Z" fill="#E83856"/>
<path d="M661.196 148.289H653.82V446.363H661.196V148.289Z" fill="#E83955"/>
<path d="M668.523 148.289H661.197V446.363H668.523V148.289Z" fill="#E83A55"/>
<path d="M675.845 155.012V446.363H668.523V148.289H671.806L675.845 155.012Z" fill="#E83B54"/>
<path d="M683.224 167.338V301.977L681.909 299.855L680.799 446.363H675.844V155.012L683.224 167.338Z" fill="#E83C54"/>
<path d="M690.55 179.514V313.9L683.225 301.977V167.338L690.55 179.514Z" fill="#E83D54"/>
<path d="M697.872 191.741V325.823L690.551 313.9V179.515L697.872 191.741Z" fill="#E93E53"/>
<path d="M705.247 204.016V337.794L697.871 325.822V191.74L705.247 204.016Z" fill="#E93F53"/>
<path d="M712.572 216.243V349.667L705.246 337.794V204.017L712.572 216.243Z" fill="#E94052"/>
<path d="M719.898 228.469V361.59L712.572 349.667V216.243L719.898 228.469Z" fill="#E94152"/>
<path d="M727.224 240.642V373.513L719.898 361.59V228.47L727.224 240.642Z" fill="#E94252"/>
<path d="M734.6 252.972V385.485L727.225 373.513V240.642L734.6 252.972Z" fill="#E94351"/>
<path d="M741.925 265.144V397.407L734.6 385.485V252.972L741.925 265.144Z" fill="#E94451"/>
<path d="M749.252 277.37V409.28L741.926 397.407V265.144L749.252 277.37Z" fill="#E94550"/>
<path d="M756.628 289.646V421.257L749.252 409.28V277.37L756.628 289.646Z" fill="#E94650"/>
<path d="M763.953 264.69V431.208H762.742L756.627 421.257V289.646L762.742 299.855L763.953 264.69Z" fill="#E94750"/>
<path d="M771.279 153.543V431.208H763.953V264.691L767.793 153.344L771.279 153.543Z" fill="#EA484F"/>
<path d="M778.655 154.001V431.208H771.279V153.543L778.655 154.001Z" fill="#EA494F"/>
<path d="M785.98 154.404V431.208H778.654V154.001L785.98 154.404Z" fill="#EA4A4E"/>
<path d="M793.306 154.858V431.208H785.98V154.404L793.306 154.858Z" fill="#EA4B4E"/>
<path d="M800.682 155.261V431.208H793.307V154.857L800.682 155.261Z" fill="#EA4D4D"/>
<path d="M808.007 155.719V431.208H800.682V155.261L808.007 155.719Z" fill="#EA4E4D"/>
<path d="M815.334 156.122V431.208H808.008V155.719L815.334 156.122Z" fill="#EA4F4D"/>
<path d="M822.66 156.575V431.208H815.334V156.122L822.66 156.575Z" fill="#EA504C"/>
<path d="M830.036 156.98V431.208H822.66V156.576L830.036 156.98Z" fill="#EA514C"/>
<path d="M837.361 157.437V431.208H830.035V156.979L837.361 157.437Z" fill="#EB524B"/>
<path d="M844.687 157.891V431.208H837.361V157.438L844.687 157.891Z" fill="#EB534B"/>
<path d="M852.063 158.294V245.696L848.627 431.208H844.688V157.891L852.063 158.294Z" fill="#EB544B"/>
<path d="M853.681 158.394L852.062 245.696V158.294L853.681 158.394Z" fill="#EB554A"/>
<path d="M896.117 233.823V336.584C891.42 320.468 889.045 302.584 889.045 283.236C889.045 265.652 891.47 249.082 896.117 233.823Z" fill="#EB5A48"/>
<path d="M903.443 214.476V356.54C900.515 350.225 898.089 343.557 896.117 336.585V233.824C898.089 227.105 900.564 220.636 903.443 214.476Z" fill="#EC5B48"/>
<path d="M910.769 200.581V370.485C908.04 366.038 905.565 361.391 903.443 356.54V214.476C905.615 209.675 908.09 205.028 910.769 200.581Z" fill="#EC5C47"/>
<path d="M918.095 189.769V381.242C915.416 377.806 912.991 374.22 910.77 370.48V200.58C913.041 196.841 915.466 193.255 918.095 189.769Z" fill="#EC5D47"/>
<path d="M925.469 180.725V390.136C922.84 387.307 920.365 384.324 918.094 381.246V189.769C920.365 186.636 922.84 183.603 925.469 180.725Z" fill="#EC5E47"/>
<path d="M932.796 173.146V397.408C930.222 395.132 927.796 392.712 925.471 390.132V180.725C927.796 178.1 930.271 175.571 932.796 173.146Z" fill="#EC5F46"/>
<path d="M940.123 166.631V403.673C937.598 401.701 935.122 399.629 932.797 397.408V173.145C935.118 170.874 937.598 168.703 940.123 166.631Z" fill="#EC6046"/>
<path d="M947.497 160.923V409.081C944.972 407.362 942.497 405.594 940.121 403.677V166.63C942.497 164.658 944.972 162.741 947.497 160.923Z" fill="#EC6145"/>
<path d="M954.824 156.072V413.677C952.299 412.213 949.873 410.699 947.498 409.081V160.923C949.873 159.255 952.299 157.586 954.824 156.072Z" fill="#EC6245"/>
<path d="M962.15 151.829V417.671C959.625 416.406 957.2 415.096 954.824 413.682V156.072C957.2 154.554 959.625 153.139 962.15 151.829Z" fill="#EC6344"/>
<path d="M969.524 148.09V421.104C966.999 420.043 964.524 418.882 962.148 417.667V151.83C964.519 150.465 966.999 149.25 969.524 148.09Z" fill="#EC6444"/>
<path d="M976.851 268.431C976.044 272.928 975.641 277.574 975.537 282.375C975.437 288.69 975.84 294.905 976.851 300.966V424.086C974.376 423.23 971.901 422.219 969.525 421.108V148.09C971.901 146.929 974.376 145.868 976.851 144.907V268.431Z" fill="#ED6544"/>
<path d="M984.177 142.128V247.06C980.691 253.525 978.216 260.701 976.852 268.43V144.907C979.227 143.896 981.702 142.985 984.177 142.128Z" fill="#ED6643"/>
<path d="M984.177 323.7V426.661C981.702 425.904 979.227 425.042 976.852 424.086V300.966C978.112 309.049 980.487 316.778 984.177 323.7Z" fill="#ED6643"/>
<path d="M991.551 139.753V236.249C988.723 239.531 986.248 243.171 984.176 247.061V142.128C986.601 141.267 989.026 140.46 991.551 139.753Z" fill="#ED6743"/>
<path d="M991.551 334.562V428.886C989.026 428.229 986.601 427.472 984.176 426.665V323.7C986.193 327.59 988.618 331.225 991.551 334.562Z" fill="#ED6743"/>
<path d="M998.879 137.835V229.077C996.199 231.248 993.774 233.674 991.553 236.249V139.753C993.928 139.045 996.403 138.388 998.879 137.835Z" fill="#ED6842"/>
<path d="M998.879 341.585V430.705C996.403 430.202 993.978 429.594 991.553 428.887V334.562C993.724 337.088 996.149 339.463 998.879 341.585Z" fill="#ED6842"/>
<path d="M1006.2 136.217V223.868C1003.58 225.432 1001.15 227.15 998.879 229.072V137.835C1001.3 137.178 1003.73 136.67 1006.2 136.217Z" fill="#ED6942"/>
<path d="M1006.2 346.485V432.269C1003.73 431.816 1001.3 431.308 998.879 430.705V341.585C1001.15 343.353 1003.58 345.021 1006.2 346.485Z" fill="#ED6942"/>
<path d="M1015.85 134.549V219.172C1012.41 220.487 1009.18 222.101 1006.2 223.869V136.217C1009.39 135.56 1012.57 135.002 1015.85 134.549Z" fill="#ED6942"/>
<path d="M1015.85 259.437H1010.29V318.193H1015.85V259.437Z" fill="#ED6942"/>
<path d="M1015.85 350.778V433.887C1012.57 433.434 1009.33 432.926 1006.2 432.269V346.485C1009.18 348.154 1012.36 349.568 1015.85 350.778Z" fill="#ED6942"/>
<path d="M1025.45 133.537V216.188C1022.07 216.995 1018.88 218.006 1015.86 219.167V134.548C1018.98 134.145 1022.22 133.791 1025.45 133.537Z" fill="#ED6A41"/>
<path d="M1025.45 259.437H1015.85V318.193H1025.45V259.437Z" fill="#ED6A41"/>
<path d="M1025.45 353.457V435.048C1022.22 434.744 1018.99 434.341 1015.86 433.887V350.778C1018.83 351.889 1022.07 352.8 1025.45 353.457Z" fill="#ED6A41"/>
<path d="M1035.05 132.935V214.575C1031.71 214.928 1028.53 215.486 1025.45 216.193V133.538C1027.12 133.334 1028.79 133.234 1030.5 133.134C1032.02 133.034 1033.54 132.984 1035.05 132.935Z" fill="#ED6B40"/>
<path d="M1035.05 259.437H1025.45V318.193H1035.05V259.437Z" fill="#ED6B40"/>
<path d="M1035.05 354.921V435.805C1031.82 435.601 1028.58 435.351 1025.45 435.047V353.457C1028.48 354.114 1031.66 354.618 1035.05 354.921Z" fill="#ED6B40"/>
<path d="M1044.7 132.935V213.972C1041.37 214.022 1038.13 214.226 1035.05 214.579V132.935C1038.23 132.83 1041.46 132.83 1044.7 132.935Z" fill="#ED6C40"/>
<path d="M1044.7 259.437H1035.05V318.193H1044.7V259.437Z" fill="#ED6C40"/>
<path d="M1044.7 355.425V436.159C1041.42 436.109 1038.24 436.009 1035.05 435.805V354.922C1038.13 355.226 1041.31 355.375 1044.7 355.425Z" fill="#ED6C40"/>
<path d="M1054.3 133.438V214.421C1051.17 214.117 1048.24 213.967 1045.66 213.967H1044.7V132.935C1047.88 132.984 1051.12 133.184 1054.3 133.438Z" fill="#EE6D3F"/>
<path d="M1054.3 259.437H1044.7V318.193H1054.3V259.437Z" fill="#EE6D3F"/>
<path d="M1054.3 355.275V436.208C1053.14 436.258 1051.92 436.258 1050.71 436.258C1048.69 436.258 1046.67 436.258 1044.7 436.159V355.425H1045.66C1047.43 355.425 1050.61 355.425 1054.3 355.275Z" fill="#EE6D3F"/>
<path d="M1063.9 134.498V215.685C1060.51 215.128 1057.28 214.724 1054.3 214.42V133.438C1057.53 133.691 1060.71 134.045 1063.9 134.498Z" fill="#EE6E3E"/>
<path d="M1063.9 259.437H1054.3V318.193H1063.9V259.437Z" fill="#EE6E3E"/>
<path d="M1063.9 354.618V435.855C1060.76 436.059 1057.58 436.159 1054.3 436.209V355.275C1057.28 355.176 1060.61 354.972 1063.9 354.618Z" fill="#EE6E3E"/>
<path d="M1073.55 136.063V217.653C1070.26 216.847 1067.03 216.239 1063.89 215.681V134.499C1067.13 134.952 1070.36 135.46 1073.55 136.063Z" fill="#EE6F3D"/>
<path d="M1073.55 259.437H1063.89V318.193H1073.55V259.437Z" fill="#EE6F3D"/>
<path d="M1073.55 352.949V434.993C1070.41 435.396 1067.18 435.65 1063.89 435.85V354.613C1067.28 354.264 1070.67 353.706 1073.55 352.949Z" fill="#EE6F3D"/>
<path d="M1083.15 138.189V220.183C1079.97 219.221 1076.73 218.365 1073.55 217.657V136.062C1076.78 136.67 1079.96 137.377 1083.15 138.189Z" fill="#EE703D"/>
<path d="M1083.15 259.437V433.683C1080.02 434.241 1076.83 434.694 1073.55 434.998V352.95C1075.52 352.446 1077.24 351.789 1078.55 351.032V318.193H1073.55V259.437H1083.15Z" fill="#EE703D"/>
<path d="M1092.79 140.813V223.365C1089.61 222.204 1086.38 221.143 1083.14 220.182V138.188C1086.43 138.946 1089.61 139.852 1092.79 140.813Z" fill="#EE713C"/>
<path d="M1092.79 259.437V431.865C1089.66 432.573 1086.43 433.18 1083.14 433.683V259.437H1092.79Z" fill="#EE713C"/>
<path d="M1102.4 143.996V227.304C1099.26 225.84 1096.08 224.525 1092.8 223.365V140.813C1096.03 141.775 1099.26 142.785 1102.4 143.996Z" fill="#EE723B"/>
<path d="M1102.4 259.437V429.44C1099.26 430.351 1096.08 431.158 1092.8 431.865V259.437H1102.4Z" fill="#EE723B"/>
<path d="M1111.99 147.686V218.515L1106.29 229.123C1105.02 228.465 1103.71 227.858 1102.4 227.305V143.996C1105.68 145.107 1108.86 146.322 1111.99 147.686Z" fill="#EE733A"/>
<path d="M1111.99 259.437V426.457C1108.86 427.518 1105.63 428.529 1102.4 429.435V259.437H1111.99Z" fill="#EE733A"/>
<path d="M1121.65 152.028V200.58L1111.99 218.514V147.686C1115.28 149.05 1118.51 150.464 1121.65 152.028Z" fill="#EF743A"/>
<path d="M1121.65 259.437V422.772C1118.46 424.086 1115.28 425.346 1111.99 426.462V259.437H1121.65Z" fill="#EF743A"/>
<path d="M1131.24 157.03V182.797L1121.64 200.581V152.029C1124.93 153.598 1128.11 155.316 1131.24 157.03Z" fill="#EF7539"/>
<path d="M1131.24 259.437V418.528C1128.06 420.042 1124.88 421.457 1121.64 422.772V259.437H1131.24Z" fill="#EF7539"/>
<path d="M1140.89 162.99V164.858L1131.24 182.792V157.024C1134.58 158.951 1137.81 160.923 1140.89 162.99Z" fill="#EF7638"/>
<path d="M1140.89 259.437V413.578C1137.71 415.346 1134.48 416.964 1131.24 418.528V259.437H1140.89Z" fill="#EF7638"/>
<path d="M1141.65 163.448L1140.89 164.863V162.99L1141.65 163.448Z" fill="#EF7737"/>
<path d="M1150.49 259.437V408.07C1147.31 410.042 1144.12 411.86 1140.89 413.578V259.437H1150.49Z" fill="#EF7737"/>
<path d="M1160.09 374.12V402.059C1156.9 404.18 1153.72 406.202 1150.49 408.07V259.437H1152.51L1160.09 374.12Z" fill="#EF7837"/>
<path d="M1161.86 400.893C1161.25 401.297 1160.7 401.651 1160.09 402.054V374.115L1161.86 400.893Z" fill="#EF7936"/>
<path d="M1198.58 234.53V339.916C1193.58 323.95 1190.96 306.32 1190.96 287.221C1190.96 268.127 1193.58 250.497 1198.58 234.53Z" fill="#F07C34"/>
<path d="M1208.18 211.089V363.358C1204.35 356.032 1201.11 348.203 1198.59 339.916V234.531C1201.11 226.244 1204.35 218.415 1208.18 211.089Z" fill="#F07D33"/>
<path d="M1217.83 195.326V379.12C1214.25 374.17 1211.06 368.916 1208.18 363.358V211.088C1211.06 205.531 1214.25 200.277 1217.83 195.326Z" fill="#F07F32"/>
<path d="M1227.43 183.504V390.943C1224 387.203 1220.81 383.264 1217.84 379.121V195.327C1220.81 191.183 1224 187.244 1227.43 183.504Z" fill="#F08031"/>
<path d="M1237.03 174.106V400.341C1233.64 397.413 1230.41 394.28 1227.43 390.944V183.504C1230.41 180.172 1233.65 177.039 1237.03 174.106Z" fill="#F08131"/>
<path d="M1246.68 166.377V408.07C1243.35 405.695 1240.11 403.12 1237.03 400.341V174.106C1240.11 171.327 1243.35 168.752 1246.68 166.377Z" fill="#F18230"/>
<path d="M1256.28 160.062V414.384C1252.95 412.467 1249.76 410.341 1246.68 408.07V166.376C1249.76 164.105 1252.95 161.984 1256.28 160.062Z" fill="#F1832F"/>
<path d="M1265.93 154.758V419.689C1262.59 418.07 1259.36 416.302 1256.28 414.385V160.062C1259.36 158.144 1262.59 156.376 1265.93 154.758Z" fill="#F1842E"/>
<path d="M1275.53 150.465V423.986C1272.25 422.672 1269.06 421.257 1265.93 419.693V154.758C1269.06 153.189 1272.25 151.775 1275.53 150.465Z" fill="#F1852E"/>
<path d="M1285.13 253.779C1280.53 263.276 1278.06 274.591 1278.06 287.225C1278.06 299.86 1280.53 311.17 1285.13 320.672V427.472C1281.85 426.461 1278.66 425.251 1275.53 423.986V150.465C1278.66 149.2 1281.85 147.989 1285.13 146.979V253.779Z" fill="#F1862D"/>
<path d="M1294.78 144.096V239.531C1290.94 243.674 1287.7 248.475 1285.12 253.779V146.979C1288.26 145.864 1291.49 144.957 1294.78 144.096Z" fill="#F1872C"/>
<path d="M1294.78 334.916V430.347C1291.49 429.49 1288.26 428.579 1285.12 427.468V320.668C1287.7 325.972 1290.94 330.773 1294.78 334.916Z" fill="#F1872C"/>
<path d="M1304.38 141.924V231.293C1300.89 233.669 1297.66 236.448 1294.78 239.53V144.095C1297.91 143.238 1301.09 142.531 1304.38 141.924Z" fill="#F1882B"/>
<path d="M1304.38 343.149V432.523C1301.1 431.915 1297.91 431.208 1294.78 430.351V334.916C1297.66 337.999 1300.89 340.778 1304.38 343.149Z" fill="#F1882B"/>
<path d="M1313.97 140.256V226.04C1310.54 227.504 1307.36 229.272 1304.38 231.294V141.924C1307.51 141.217 1310.69 140.714 1313.97 140.256Z" fill="#F2892B"/>
<path d="M1313.97 348.403V434.186C1310.69 433.733 1307.51 433.225 1304.38 432.518V343.148C1307.36 345.17 1310.54 346.938 1313.97 348.403Z" fill="#F2892B"/>
<path d="M1323.63 139.096V222.708C1320.24 223.565 1317.01 224.68 1313.97 226.045V140.256C1317.11 139.753 1320.34 139.399 1323.63 139.096Z" fill="#F28A2A"/>
<path d="M1323.63 351.739V435.351C1320.34 435.047 1317.11 434.694 1313.97 434.191V348.402C1317.01 349.767 1320.24 350.878 1323.63 351.739Z" fill="#F28A2A"/>
<path d="M1333.22 138.438V220.94C1329.89 221.294 1326.71 221.901 1323.63 222.708V139.096C1326.76 138.792 1329.99 138.543 1333.22 138.438Z" fill="#F28B29"/>
<path d="M1333.22 353.507V436.009C1329.99 435.909 1326.75 435.655 1323.63 435.352V351.739C1326.71 352.546 1329.89 353.154 1333.22 353.507Z" fill="#F28B29"/>
<path d="M1342.87 138.188V220.337C1339.54 220.337 1336.36 220.541 1333.22 220.944V138.438C1336.41 138.288 1339.64 138.188 1342.87 138.188Z" fill="#F28C28"/>
<path d="M1342.87 354.114V436.262C1339.64 436.262 1336.41 436.163 1333.22 436.008V353.507C1336.36 353.91 1339.54 354.114 1342.87 354.114Z" fill="#F28C28"/>
<path d="M1352.47 138.388V220.89C1349.44 220.486 1346.36 220.332 1343.12 220.332H1342.87V138.188H1343.12C1346.26 138.188 1349.39 138.238 1352.47 138.388Z" fill="#F28D28"/>
<path d="M1352.47 353.557V436.058C1349.39 436.208 1346.26 436.262 1343.12 436.262H1342.87V354.114H1343.12C1346.36 354.114 1349.44 353.96 1352.47 353.557Z" fill="#F28D28"/>
<path d="M1362.07 139.046V222.559C1358.99 221.801 1355.81 221.244 1352.48 220.89V138.389C1355.7 138.543 1358.94 138.742 1362.07 139.046Z" fill="#F28E27"/>
<path d="M1362.07 351.889V435.401C1358.94 435.705 1355.71 435.904 1352.48 436.059V353.557C1355.81 353.203 1358.99 352.646 1362.07 351.889Z" fill="#F28E27"/>
<path d="M1371.72 140.206V225.791C1368.69 224.476 1365.45 223.415 1362.07 222.558V139.046C1365.36 139.3 1368.59 139.703 1371.72 140.206Z" fill="#F28F26"/>
<path d="M1371.72 348.656V434.241C1368.59 434.744 1365.36 435.152 1362.07 435.401V351.888C1365.45 351.032 1368.69 349.971 1371.72 348.656Z" fill="#F28F26"/>
<path d="M1381.32 141.775V230.945C1378.34 228.923 1375.16 227.205 1371.72 225.79V140.206C1375.01 140.61 1378.19 141.167 1381.32 141.775Z" fill="#F39025"/>
<path d="M1381.32 343.502V432.672C1378.19 433.28 1375.01 433.833 1371.72 434.236V348.656C1375.16 347.242 1378.34 345.524 1381.32 343.502Z" fill="#F39025"/>
<path d="M1390.92 143.946V238.978C1388.04 235.945 1384.81 233.27 1381.32 230.945V141.774C1384.6 142.377 1387.79 143.139 1390.92 143.946Z" fill="#F39125"/>
<path d="M1390.92 335.469V430.5C1387.79 431.307 1384.6 432.064 1381.32 432.672V343.502C1384.81 341.181 1388.04 338.502 1390.92 335.469Z" fill="#F39125"/>
<path d="M1400.57 146.775V252.718C1397.99 247.564 1394.76 242.967 1390.92 238.978V143.946C1394.2 144.803 1397.44 145.714 1400.57 146.775Z" fill="#F39224"/>
<path d="M1400.57 321.729V427.672C1397.44 428.733 1394.2 429.644 1390.92 430.501V335.469C1394.76 331.48 1397.99 326.883 1400.57 321.729Z" fill="#F39224"/>
<path d="M1410.17 150.261V424.186C1407.03 425.501 1403.85 426.661 1400.57 427.672V321.729C1405.52 312.028 1408.2 300.359 1408.2 287.221C1408.2 274.084 1405.52 262.415 1400.57 252.714V146.771C1403.85 147.786 1407.03 148.946 1410.17 150.261Z" fill="#F39323"/>
<path d="M1421.28 155.261V419.181C1417.7 420.999 1414.01 422.717 1410.17 424.181V150.261C1414.01 151.725 1417.7 153.443 1421.28 155.261Z" fill="#F39323"/>
<path d="M1432.45 161.526V412.916C1428.86 415.187 1425.12 417.259 1421.28 419.181V155.261C1425.12 157.183 1428.86 159.255 1432.45 161.526Z" fill="#F39422"/>
<path d="M1443.56 169.36V405.092C1440.03 407.921 1436.29 410.495 1432.45 412.921V161.526C1436.29 163.952 1440.02 166.531 1443.56 169.36Z" fill="#F39521"/>
<path d="M1454.67 179.211V395.236C1451.19 398.723 1447.5 402.055 1443.56 405.087V169.355C1447.5 172.388 1451.19 175.725 1454.67 179.211Z" fill="#F49620"/>
<path d="M1465.79 191.841V382.607C1462.4 387.054 1458.72 391.297 1454.68 395.237V179.211C1458.72 183.15 1462.4 187.394 1465.79 191.841Z" fill="#F4971F"/>
<path d="M1476.91 208.968V365.48C1473.67 371.541 1469.93 377.253 1465.79 382.607V191.841C1469.93 197.195 1473.67 202.907 1476.91 208.968Z" fill="#F4981E"/>
<path d="M1488.02 235.691V338.755C1485.19 348.253 1481.45 357.197 1476.91 365.479V208.967C1481.45 217.249 1485.19 226.193 1488.02 235.691Z" fill="#F4991D"/>
<path d="M1495.29 287.222C1495.29 305.862 1492.82 323.089 1488.02 338.752V235.691C1492.82 251.354 1495.29 268.581 1495.29 287.222Z" fill="#F59A1C"/>
<path d="M1499.19 382.402V410.794C1495.91 407.104 1494.03 402.208 1494.03 396.596C1494.03 390.993 1495.9 386.092 1499.19 382.402Z" fill="#F59A1C"/>
<path d="M1510.3 375.734V417.414C1505.75 416.303 1501.96 413.977 1499.18 410.795V382.403C1501.96 379.171 1505.75 376.85 1510.3 375.734Z" fill="#F59B1B"/>
<path d="M1521.41 375.38V417.766C1519.9 418.02 1518.33 418.17 1516.66 418.17C1514.44 418.17 1512.27 417.916 1510.3 417.413V375.734C1512.27 375.23 1514.44 374.977 1516.66 374.977C1518.33 374.977 1519.9 375.131 1521.41 375.38Z" fill="#F59C1A"/>
<path d="M1532.53 380.739V412.467C1529.6 415.146 1525.81 416.964 1521.41 417.771V375.385C1525.81 376.192 1529.6 378.059 1532.53 380.739Z" fill="#F59D1A"/>
<path d="M1539.3 396.601C1539.3 403.07 1536.77 408.623 1532.53 412.463V380.734C1536.77 384.579 1539.3 390.082 1539.3 396.601Z" fill="#F59E19"/>
<path d="M1554.76 301.673V368.612C1549.25 359.871 1546.17 348.452 1546.17 335.165C1546.17 321.882 1549.25 310.463 1554.76 301.673Z" fill="#F69F18"/>
<path d="M1565.92 289.701V380.639C1561.52 377.507 1557.79 373.468 1554.76 368.617V301.674C1557.79 296.823 1561.53 292.779 1565.92 289.701Z" fill="#F6A017"/>
<path d="M1577.04 284.293V386.043C1572.99 384.882 1569.26 383.06 1565.92 380.639V289.701C1569.26 287.276 1572.99 285.453 1577.04 284.293Z" fill="#F6A116"/>
<path d="M1588.15 325.364C1586.89 327.994 1586.23 331.226 1586.23 335.165C1586.23 339.055 1586.94 342.137 1588.15 344.662V387.856C1584.26 387.756 1580.52 387.149 1577.04 386.038V284.292C1580.52 283.182 1584.26 282.574 1588.15 282.475V325.364Z" fill="#F6A215"/>
<path d="M1599.27 283.686V316.575C1594.47 317.586 1590.38 320.414 1588.15 325.365V282.471H1589.31C1592.8 282.475 1596.14 282.879 1599.27 283.686Z" fill="#F6A314"/>
<path d="M1599.27 353.153V386.65C1596.14 387.457 1592.8 387.86 1589.32 387.86H1588.16V344.667C1590.42 349.413 1594.57 351.938 1599.27 353.153Z" fill="#F6A314"/>
<path d="M1610.38 288.436V316.829C1609.32 316.575 1608.21 316.425 1607.1 316.271C1604.42 315.967 1601.74 316.017 1599.27 316.575V283.686C1603.31 284.647 1607.05 286.215 1610.38 288.436Z" fill="#F7A413"/>
<path d="M1610.38 353.761V381.899C1607.04 384.07 1603.31 385.689 1599.27 386.65V353.153C1601.79 353.811 1604.47 354.065 1607.09 354.065C1608.21 354.06 1609.32 353.96 1610.38 353.761Z" fill="#F7A413"/>
<path d="M1621.55 300.155V322.536C1618.82 319.354 1614.73 317.685 1610.38 316.829V288.437C1614.88 291.365 1618.67 295.255 1621.55 300.155Z" fill="#F7A512"/>
<path d="M1621.55 347.8V370.181C1618.67 375.031 1614.88 378.971 1610.38 381.904V353.766C1614.78 353.104 1618.82 350.982 1621.55 347.8Z" fill="#F7A512"/>
<path d="M1632.66 245.442V385.485H1621.8V369.773L1621.55 370.181V300.155L1621.8 300.563V245.896L1632.66 245.442Z" fill="#F7A711"/>
<path d="M1643.78 245.039V385.485H1632.66V245.443L1643.78 245.039Z" fill="#F7A810"/>
<path d="M1654.89 244.585V385.485H1643.78V245.038L1654.89 244.585Z" fill="#F8A90F"/>
<path d="M1666 385.485H1654.89V244.585L1662.01 244.281L1666 385.485Z" fill="#F8AA0E"/>
<path d="M1699.4 234.784V385.739H1689.8V236.199L1699.4 234.784Z" fill="#F8AD0B"/>
<path d="M1710.52 233.116V385.739H1699.4V234.784L1710.52 233.116Z" fill="#F9AE0A"/>
<path d="M1721.63 231.448V385.739H1710.52V233.116L1721.63 231.448Z" fill="#F9AF09"/>
<path d="M1732.74 311.424V358.103L1730.52 360.479V385.739H1721.63V231.447L1730.47 230.133L1730.52 314.149L1732.74 311.424Z" fill="#F9B009"/>
<path d="M1743.86 297.729V356.082L1740.32 349.921L1732.74 358.104V311.425L1743.86 297.729Z" fill="#F9B108"/>
<path d="M1755.02 283.989V375.585L1743.86 356.082V297.73L1755.02 283.989Z" fill="#F9B207"/>
<path d="M1766.13 277.928V385.739H1760.83L1755.02 375.584V283.989L1759.92 277.928H1766.13Z" fill="#FAB306"/>
<path d="M1777.25 309.756L1769.12 318.546L1777.25 332.441V385.739H1766.13V277.928H1777.25V309.756Z" fill="#FAB405"/>
<path d="M1788.37 351.385V385.739H1777.25V332.44L1784.32 344.463L1788.37 351.385Z" fill="#FAB504"/>
<path d="M1788.37 277.928V297.729L1784.32 302.077L1777.25 309.756V277.928H1788.37Z" fill="#FAB504"/>
<path d="M1795.44 363.408V385.739H1784.32V344.463L1788.37 351.385L1795.44 363.408Z" fill="#FBB702"/>
<path d="M1795.44 277.928V290.054L1788.37 297.729L1784.32 302.077V277.928H1795.44Z" fill="#FBB702"/>
<path d="M1806.61 277.928V277.978L1795.44 290.055V277.928H1806.61Z" fill="#FBB801"/>
<path d="M1806.6 382.457V385.739H1795.44V363.408L1806.6 382.457Z" fill="#FBB801"/>
<path d="M1806.66 277.928L1806.61 277.978V277.928H1806.66Z" fill="#FBB900"/>
<path d="M1808.53 385.739H1806.61V382.457L1808.53 385.739Z" fill="#FBB900"/>
<defs>
<linearGradient id="paint0_linear_2004_1075" x1="15.0328" y1="284.697" x2="1904.51" y2="284.697" gradientUnits="userSpaceOnUse">
<stop stop-color="#D82E8A"/>
<stop offset="0.2554" stop-color="#E73059"/>
<stop offset="0.5057" stop-color="#ED6942"/>
<stop offset="0.7472" stop-color="#F39323"/>
<stop offset="1" stop-color="#FBB900"/>
</linearGradient>
</defs>
</svg>
